<svg xmlns="http://www.w3.org/2000/svg" version="1.0" preserveAspectRatio="xMidYMid meet" width="2600" height="2600" style=""><rect id="backgroundrect" width="100%" height="100%" x="0" y="0" fill="none" stroke="none"/>
<metadata>
Created by hieplpvip
</metadata>
<g class="currentLayer" style=""><g transform="translate(0,2600) scale(0.10000000149011612,-0.10000000149011612) " fill="#0069D9" stroke="none" id="svg_1" class="">
<path d="M24417.485837943437,24434.889920546335 c-57.65170501825872,-26.206425177545736 -127.37004597057155,-114.90509500923899 -155.5255298166979,-199.5720071213098 c-16.088847912072197,-44.34933491584663 -36.19990780216244,-179.41321852319768 -48.26654373621659,-326.57237528941613 c-56.31096769225268,-622.9065676816641 -214.51797216096264,-1318.3847743165315 -425.01373234390724,-1872.7514607646146 c-390.1545618677508,-1020.0347030644725 -976.05677333238,-1715.5129096993403 -1740.2770491558092,-2062.244073586868 c-498.7542852742381,-227.79431115866674 -1072.5898608048133,-300.36595011187035 -1788.5435928920258,-225.7784322988556 c-411.606359083847,42.333456056035416 -925.1087549441513,34.26994061679057 -1181.1895842113004,-20.158788598112103 c-805.7831329296158,-167.31794536433043 -1430.5667268484196,-598.7160213639295 -1903.8470029285434,-1314.3530165969091 c-109.94046073249334,-167.31794536433043 -290.9399997433056,-497.92207837336895 -340.54728080552815,-624.9224465414752 c-12.066635934054148,-30.238182897168162 -16.088847912072197,-30.238182897168162 -26.81474652012033,-8.06351543924484 c-9.385161282042116,20.158788598112103 -63.01465432228277,-34.26994061679057 -234.62903205105286,-231.8260688782892 c-210.49576018294462,-245.93722089696766 -221.2216587909927,-260.04837291564615 -202.45133622690847,-300.36595011187035 c170.27364040276407,-354.79467932677306 315.0732716114139,-772.0816033076935 388.81382454174474,-1118.8127671952216 c13.407373260060165,-60.47636579433632 26.81474652012033,-116.92097386905019 32.177695824144394,-124.98448930829504 c8.044423956036098,-12.095273158867263 521.5468198163403,193.5243705418762 534.9541930764005,215.69903799979951 c8.044423956036098,10.079394299056052 -52.28875571423464,260.04837291564615 -112.62193538450536,469.6997743360121 l-60.33317967027073,205.6196437007435 l69.71834095231286,203.60376484093226 c273.51041450522735,802.3197862048617 809.8053449076339,1397.0040498491685 1493.5813811707026,1661.0841804844374 c420.99152036588924,163.28618764470806 888.908847141989,207.63552256055468 1494.9221184967087,141.11152018678473 c422.33225769189517,-46.365213775657836 963.9901373983258,-34.26994061679057 1268.3375104016914,28.22230403735695 c509.4801838822862,102.80982185037175 922.4272802921394,286.2547980931919 1330.0114273979684,590.6525059246846 c943.8790775082356,701.5258432143013 1611.5662658592316,2007.8153443719657 1885.0766803644592,3683.0106768750807 c97.8738247984392,596.7001425041183 111.28119805849936,915.2090023542894 45.585069084204555,1064.384037980319 c-64.35539164828879,145.14327790640715 -206.47354820492652,219.7307957194219 -323.11769556744997,167.31794536433043 z" id="svg_2"/>
<path d="M13930.238473924372,19564.52659524245 c-73.74055293033089,-14.111152018678474 -202.45133622690847,-50.396971495280255 -285.57705043928155,-78.6192755326372 c-126.02930864456555,-44.34933491584663 -150.16258051267386,-60.47636579433632 -144.79963120864977,-86.68279097188204 c4.022211978018049,-20.158788598112103 37.540645128168464,-197.5561282614986 75.08129025633693,-397.1281353828084 c38.88138245417448,-199.5720071213098 71.05907827831888,-366.88995248564026 73.74055293033089,-368.9058313454515 c2.6814746520120334,-4.03175771962242 88.48866351639708,16.12703087848968 190.38470029285432,44.34933491584663 c101.89603677645724,28.22230403735695 213.1772348349566,56.4446080747139 249.37714263711905,64.50812351395872 c56.31096769225268,10.079394299056052 63.01465432228277,16.12703087848968 57.65170501825872,54.428729214902674 c-4.022211978018049,24.190546317734526 -13.407373260060165,193.5243705418762 -21.451797216096264,376.96934678469637 c-17.429585238078214,383.01698336413006 -21.451797216096264,423.33456056035413 -44.24433175819854,421.31868170054304 c-8.044423956036098,-2.01587885981121 -76.42202758234293,-14.111152018678474 -150.16258051267386,-30.238182897168162 z" id="svg_3"/>
<path d="M14707.86612300786,19532.272533485473 c-12.066635934054148,-82.65103325225962 -63.01465432228277,-784.1768764665608 -57.65170501825872,-792.2403919058057 c2.6814746520120334,-4.03175771962242 46.925806410210576,-18.142909738300894 97.8738247984392,-30.238182897168162 c88.48866351639708,-20.158788598112103 324.45843289345595,-104.82570071018294 368.70276465165443,-129.01624702791744 c16.088847912072197,-10.079394299056052 38.88138245417448,70.55576009339237 109.94046073249334,389.0646199435637 l88.48866351639708,403.17577196224204 l-96.53308747243318,42.333456056035416 c-93.85161282042115,44.34933491584663 -337.86580615351613,124.98448930829504 -446.46552956000346,149.17503562602957 c-50.94801838822862,12.095273158867263 -57.65170501825872,8.06351543924484 -64.35539164828879,-32.25406175697936 z" id="svg_4"/>
<path d="M12683.352760738779,18903.31832922437 c-136.75520725261367,-106.84157956999415 -241.33271868108292,-199.5720071213098 -241.33271868108292,-215.69903799979951 c0,-46.365213775657836 233.28829472504685,-723.7005106722246 249.37714263711905,-723.7005106722246 c10.725898608048132,0 458.53216549405755,338.66764844828333 490.70986131820194,370.9217102052627 c2.6814746520120334,4.03175771962242 -250.71787996312503,757.970451289015 -254.7400919411431,757.970451289015 c-1.3407373260060165,0 -111.28119805849936,-84.66691211207083 -244.014193333095,-189.49261282225376 z" id="svg_5"/>
<path d="M15733.530177402463,18645.285835168543 c-69.71834095231286,-191.50849168206503 -128.71078329657757,-356.81055818658433 -130.05152062258358,-368.9058313454515 c-2.6814746520120334,-10.079394299056052 32.177695824144394,-50.396971495280255 76.42202758234293,-88.69866983169327 c45.585069084204555,-38.301698336413 135.41446992660767,-131.03212588772868 201.11059890090246,-207.63552256055468 c67.03686630030083,-74.58751781301478 124.68857131855953,-137.07976246716228 131.3922579485896,-135.0638836073511 c5.362949304024066,0 89.8294008424031,141.11152018678473 187.7032256408423,314.4771021305488 l178.31806435880017,312.4612232707376 l-122.0070966665475,145.14327790640715 c-130.05152062258358,153.206793345652 -356.63612871760034,374.95346792488516 -380.76940058570864,374.95346792488516 c-8.044423956036098,0 -72.39981560432489,-157.2385510652744 -142.11815655663776,-346.73116388752817 z" id="svg_6"/>
<path d="M11691.207139494323,18135.268483636308 c-132.73299527459565,-102.80982185037175 -242.673456007089,-197.5561282614986 -245.35493065910097,-207.63552256055468 c-6.7036866300300835,-30.238182897168162 238.6512440290709,-729.7481472516581 254.7400919411431,-729.7481472516581 c8.044423956036098,0 122.0070966665475,82.65103325225962 252.0586172891311,185.46085510263134 l238.6512440290709,185.46085510263134 l-91.17013816840911,274.15952493432457 c-50.94801838822862,149.17503562602957 -108.59972340648733,318.50885985017123 -130.05152062258358,376.96934678469637 l-38.88138245417448,104.82570071018294 l-239.99198135507692,-189.49261282225376 z" id="svg_7"/>
<path d="M14050.904833264914,17893.36302045896 c-142.11815655663776,-32.25406175697936 -311.0510596333958,-102.80982185037175 -442.4433175819854,-183.44497624282013 c-187.7032256408423,-110.87333728961657 -9963.019069550708,-7680.498455880712 -10107.818700759359,-7823.625854927306 c-427.6952069959192,-427.3663182799766 -726.6796306952608,-1102.6857363167321 -840.6423034057724,-1900.9737648019711 c-44.24433175819854,-304.39770783149277 -44.24433175819854,-844.6532422608971 0,-1149.05095009239 c152.84405516468587,-1072.4475534195637 628.8058058968217,-1890.8943705029153 1301.8559435518418,-2241.6572921100665 c202.45133622690847,-104.82570071018294 336.5250688275101,-139.0956413269735 583.2207368126172,-151.19091448584078 c392.8360365197628,-18.142909738300894 632.8280178748397,68.53988123358114 1039.0714276546626,374.95346792488516 c1083.3157594128613,818.4468170833513 9767.27141995383,7551.482208852794 9867.82671940428,7652.2761518433545 c325.7991702194619,322.54061756979365 600.6503220506954,840.6214845412748 744.109215933339,1397.0040498491685 c96.53308747243318,378.9852256445075 151.5033178386799,876.9073040178764 134.07373260060166,1233.717862204461 c-69.71834095231286,1461.5121733631274 -776.2869117574835,2606.5313657358947 -1726.8696758957492,2800.0557362777713 c-138.09594457861968,28.22230403735695 -416.96930838787114,24.190546317734526 -552.3837783144787,-8.06351543924484 zm522.8875571423464,-846.6691211207083 c357.9768660436064,-86.68279097188204 679.7538242850503,-374.95346792488516 895.6125337720189,-802.3197862048617 c195.7476495968784,-387.0487410837524 290.9399997433056,-810.3833016441066 290.9399997433056,-1298.2259857184195 c0,-798.2880284852392 -277.53262648324534,-1495.782113979918 -750.8129025633692,-1884.8467339234815 c-91.17013816840911,-76.603396672826 -9366.39095947803,-7249.100379881112 -9677.442019111426,-7482.942327619212 c-207.8142855309325,-157.2385510652744 -327.13990754546796,-223.76255343904435 -484.00617468817194,-264.0801306352686 c-592.6058980946593,-157.2385510652744 -1199.9599067753848,284.23891923338067 -1486.8776945406719,1078.4951899989976 c-63.01465432228277,177.39733966338653 -126.02930864456555,435.4298337192214 -151.5033178386799,635.0018408405313 c-22.792534542102278,169.33382422414167 -22.792534542102278,594.684263644307 0,772.0816033076935 c75.08129025633693,598.7160213639295 335.1843315015042,1155.0985866718236 678.4130869590443,1453.4486579238826 c46.925806410210576,40.31757719622421 9121.03602881893,7059.6077670588575 9692.190129697492,7497.053479637891 c254.7400919411431,195.54024940168736 395.5175111717748,270.1277672147022 597.9688473986832,314.4771021305488 c84.46645153837903,18.142909738300894 285.57705043928155,10.079394299056052 395.5175111717748,-18.142909738300894 z" id="svg_8"/>
<path d="M12963.566861874035,14843.338305564594 c-123.3478339925535,-66.52400237376993 -201.11059890090246,-141.11152018678473 -288.25852509129356,-280.2071615137583 c-122.0070966665475,-191.50849168206503 -163.56995377273398,-330.6041330090385 -218.54018413898066,-733.7799049712805 c-46.925806410210576,-336.6517695884721 -67.03686630030083,-409.22340854167567 -123.3478339925535,-463.6521377565784 c-67.03686630030083,-62.49224465414752 -128.71078329657757,-44.34933491584663 -320.4362209154379,88.69866983169327 c-209.15502285693856,143.12739904659594 -304.3473730033657,183.44497624282013 -455.8506908420456,183.44497624282013 c-198.42912424889045,2.01587885981121 -364.68055267363644,-106.84157956999415 -506.79870923027426,-328.5882541492273 c-126.02930864456555,-195.54024940168736 -185.02175098883026,-399.1440142426196 -230.60682007303484,-784.1768764665608 c-29.496221172132362,-256.0166151960237 -54.97023036624667,-358.82643704639537 -104.57751142846928,-411.239287401487 c-61.67391699627675,-66.52400237376993 -128.71078329657757,-54.428729214902674 -270.82893985321533,44.34933491584663 c-230.60682007303484,161.27030878489683 -324.45843289345595,205.6196437007435 -463.89511479808175,217.7149168596107 c-218.54018413898066,16.12703087848968 -379.42866325970266,-70.55576009339237 -534.9541930764005,-290.2865558128143 c-135.41446992660767,-193.5243705418762 -198.42912424889045,-397.1281353828084 -253.39935461513713,-824.494453662785 c-36.19990780216244,-282.22304037356946 -56.31096769225268,-354.79467932677306 -109.94046073249334,-409.22340854167567 c-64.35539164828879,-66.52400237376993 -119.32562201453545,-52.41285035509147 -315.0732716114139,82.65103325225962 c-89.8294008424031,62.49224465414752 -207.8142855309325,131.03212588772868 -261.4437785711732,155.2226722054632 c-246.695667985107,100.79394299056051 -505.4579719042682,2.01587885981121 -690.4797228930984,-266.0960094950797 c-128.71078329657757,-185.46085510263134 -202.45133622690847,-429.38219713978776 -246.695667985107,-822.478574802974 c-24.133271868108295,-215.69903799979951 -56.31096769225268,-342.69940616790575 -97.8738247984392,-395.1122565229972 c-61.67391699627675,-78.6192755326372 -122.0070966665475,-66.52400237376993 -323.11769556744997,70.55576009339237 c-207.8142855309325,141.11152018678473 -290.9399997433056,181.4290973830089 -416.96930838787114,195.54024940168736 c-178.31806435880017,22.174667457923317 -388.81382454174474,-90.71454869150445 -525.5690317943584,-282.22304037356946 c-136.75520725261367,-191.50849168206503 -205.1328108789205,-413.25516626129814 -258.7623039191612,-836.5897268216522 c-32.177695824144394,-262.06425177545736 -53.62949304024066,-346.73116388752817 -101.89603677645724,-403.17577196224204 c-58.992442344264724,-70.55576009339237 -124.68857131855953,-56.4446080747139 -308.36958498138375,68.53988123358114 c-235.9697693770589,157.2385510652744 -337.86580615351613,199.5720071213098 -474.6210134061298,199.5720071213098 c-63.01465432228277,0 -138.09594457861968,-12.095273158867263 -167.5921657507521,-26.206425177545736 c-71.05907827831888,-32.25406175697936 -154.18479249069188,-86.68279097188204 -154.18479249069188,-98.7780641307493 c0,-6.0476365794336315 57.65170501825872,-175.38146080357532 127.37004597057155,-378.9852256445075 c120.66635934054146,-346.73116388752817 130.05152062258358,-368.9058313454515 158.20700446870993,-352.7788004669618 c46.925806410210576,26.206425177545736 95.19235014642716,6.0476365794336315 264.12525322318527,-108.85745842980535 c185.02175098883026,-127.00036816810626 258.7623039191612,-163.28618764470806 380.76940058570864,-191.50849168206503 c206.47354820492652,-48.38109263546905 425.01373234390724,64.50812351395872 585.9022114646292,302.38182897168156 c126.02930864456555,185.46085510263134 193.06617494486636,399.1440142426196 233.28829472504685,743.8592992703367 c32.177695824144394,274.15952493432457 60.33317967027073,397.1281353828084 103.23677410246326,459.62038003695596 c61.67391699627675,88.69866983169327 119.32562201453545,76.603396672826 333.8435941754981,-68.53988123358114 c217.19944681297466,-149.17503562602957 311.0510596333958,-187.47673396244258 447.80626688600944,-187.47673396244258 c201.11059890090246,0 371.3842393036665,104.82570071018294 512.1616585342982,314.4771021305488 c108.59972340648733,165.30206650451925 168.93290307675807,352.7788004669618 213.1772348349566,667.2559025975106 c54.97023036624667,397.1281353828084 79.10350223435496,491.8744417939353 132.73299527459565,548.3190498686491 c64.35539164828879,64.50812351395872 115.30341003651742,52.41285035509147 300.3251610253477,-76.603396672826 c209.15502285693856,-143.12739904659594 300.3251610253477,-185.46085510263134 430.37668164793126,-197.5561282614986 c130.05152062258358,-12.095273158867263 237.3105067030649,20.158788598112103 351.27317941357626,106.84157956999415 c242.673456007089,183.44497624282013 360.6583406956184,453.5727434575223 425.01373234390724,969.6377315691922 c36.19990780216244,288.27067695300303 60.33317967027073,387.0487410837524 105.9182487544753,443.4933491584663 c61.67391699627675,76.603396672826 128.71078329657757,62.49224465414752 308.36958498138375,-62.49224465414752 c225.24387076901073,-157.2385510652744 332.5028568494921,-201.58788598112102 478.64322538414785,-201.58788598112102 c189.04396296684834,0 363.3398153476304,106.84157956999415 496.0728106222261,302.38182897168156 c126.02930864456555,187.47673396244258 185.02175098883026,385.0328622239411 241.33271868108292,800.3039073450506 c40.222119780180485,308.42946555111524 60.33317967027073,381.00110450431873 120.66635934054146,437.44571257903266 c64.35539164828879,60.47636579433632 103.23677410246326,48.38109263546905 289.59926241729954,-80.63515439244841 c229.26608274702878,-157.2385510652744 296.30294904732966,-187.47673396244258 447.80626688600944,-197.5561282614986 c119.32562201453545,-8.06351543924484 146.14036853465578,-2.01587885981121 241.33271868108292,46.365213775657836 c130.05152062258358,64.50812351395872 179.6588016848062,108.85745842980535 273.51041450522735,241.90546317734527 c139.43668190462571,195.54024940168736 203.79207355291447,403.17577196224204 256.0808292671491,814.415059363729 c34.85917047615643,274.15952493432457 64.35539164828879,383.01698336413006 117.98488468852945,431.39807599959903 c60.33317967027073,50.396971495280255 117.98488468852945,42.333456056035416 237.3105067030649,-38.301698336413 c316.41400893741985,-211.66728028017707 443.7840549079914,-264.0801306352686 588.5836861166413,-241.90546317734527 c87.14792619039106,14.111152018678474 186.36248831483624,52.41285035509147 241.33271868108292,96.7621852709381 l33.518433150150415,26.206425177545736 l-124.68857131855953,362.8581947660178 l-126.02930864456555,362.8581947660178 l-71.05907827831888,2.01587885981121 c-57.65170501825872,2.01587885981121 -104.57751142846928,24.190546317734526 -226.5846080950168,108.85745842980535 c-241.33271868108292,167.31794536433043 -284.2363131132755,185.46085510263134 -449.1470042120155,195.54024940168736 c-136.75520725261367,8.06351543924484 -155.5255298166979,4.03175771962242 -256.0808292671491,-50.396971495280255 z" id="svg_9"/>
<path d="M10685.65414498981,17359.155122608987 c-124.68857131855953,-98.7780641307493 -229.26608274702878,-189.49261282225376 -231.94755739904087,-199.5720071213098 c-2.6814746520120334,-12.095273158867263 50.94801838822862,-185.46085510263134 119.32562201453545,-385.0328622239411 l124.68857131855953,-360.84231590620664 l252.0586172891311,193.5243705418762 l250.71787996312503,195.54024940168736 l-126.02930864456555,362.8581947660178 c-69.71834095231286,201.58788598112102 -134.07373260060166,366.88995248564026 -143.45889388264376,368.9058313454515 c-9.385161282042116,2.01587885981121 -119.32562201453545,-76.603396672826 -245.35493065910097,-175.38146080357532 z" id="svg_10"/>
<path d="M9693.50852374536,16593.12115588073 c-124.68857131855953,-98.7780641307493 -231.94755739904087,-183.44497624282013 -237.3105067030649,-185.46085510263134 c-5.362949304024066,-4.03175771962242 48.26654373621659,-175.38146080357532 117.98488468852945,-385.0328622239411 l128.71078329657757,-376.96934678469637 l241.33271868108292,183.44497624282013 c132.73299527459565,102.80982185037175 244.014193333095,195.54024940168736 246.695667985107,207.63552256055468 c8.044423956036098,32.25406175697936 -234.62903205105286,737.811662690903 -253.39935461513713,735.7957838310917 c-9.385161282042116,0 -117.98488468852945,-80.63515439244841 -244.014193333095,-179.41321852319768 z" id="svg_11"/>
<path d="M8701.362902500907,15825.071310292655 c-124.68857131855953,-98.7780641307493 -233.28829472504685,-181.4290973830089 -239.99198135507692,-185.46085510263134 c-6.7036866300300835,-2.01587885981121 46.925806410210576,-175.38146080357532 117.98488468852945,-383.01698336413006 l130.05152062258358,-374.95346792488516 l223.90313344300472,167.31794536433043 c123.3478339925535,94.74630641112688 235.9697693770589,183.44497624282013 249.37714263711905,199.5720071213098 c24.133271868108295,26.206425177545736 20.111059890090242,44.34933491584663 -99.21456212444522,393.09637766318605 c-68.37760362630684,201.58788598112102 -131.3922579485896,366.88995248564026 -139.43668190462571,364.87407362582906 c-8.044423956036098,0 -116.64414736252343,-82.65103325225962 -242.673456007089,-181.4290973830089 z" id="svg_12"/>
<path d="M17150.68953099083,15284.815775863253 l-265.4659905491913,-32.25406175697936 l-5.362949304024066,-352.7788004669618 c-1.3407373260060165,-193.5243705418762 -5.362949304024066,-366.88995248564026 -8.044423956036098,-383.01698336413006 c-4.022211978018049,-22.174667457923317 41.56285710618651,-36.28581947660179 235.9697693770589,-74.58751781301478 c293.6214743953176,-54.428729214902674 309.71032230738973,-54.428729214902674 320.4362209154379,-14.111152018678474 c26.81474652012033,104.82570071018294 24.133271868108295,901.097850335611 -2.6814746520120334,893.0343348963661 c-5.362949304024066,-2.01587885981121 -128.71078329657757,-18.142909738300894 -274.8511518312334,-36.28581947660179 z" id="svg_13"/>
<path d="M7709.217281256459,15059.037343564398 c-124.68857131855953,-98.7780641307493 -233.28829472504685,-181.4290973830089 -239.99198135507692,-185.46085510263134 c-10.725898608048132,-6.0476365794336315 218.54018413898066,-703.5417220741124 244.014193333095,-743.8592992703367 c8.044423956036098,-10.079394299056052 473.2802760801238,326.57237528941613 498.7542852742381,360.84231590620664 c10.725898608048132,14.111152018678474 -246.695667985107,751.9228147095816 -261.4437785711732,749.9069358497703 c-6.7036866300300835,-2.01587885981121 -115.30341003651742,-82.65103325225962 -241.33271868108292,-181.4290973830089 z" id="svg_14"/>
<path d="M6717.071660012006,14290.987497976324 c-132.73299527459565,-98.7780641307493 -244.014193333095,-185.46085510263134 -245.35493065910097,-187.47673396244258 c-6.7036866300300835,-10.079394299056052 223.90313344300472,-699.50996435449 244.014193333095,-731.7640261114694 c12.066635934054148,-20.158788598112103 65.6961289742948,14.111152018678474 256.0808292671491,159.25442992508562 c132.73299527459565,102.80982185037175 244.014193333095,187.47673396244258 246.695667985107,191.50849168206503 c6.7036866300300835,8.06351543924484 -244.014193333095,753.9386935693927 -253.39935461513713,751.9228147095816 c-4.022211978018049,0 -115.30341003651742,-82.65103325225962 -248.03640531111304,-183.44497624282013 z" id="svg_15"/>
<path d="M16713.609162712863,13575.35050274335 c-25.47400919411431,-98.7780641307493 -71.05907827831888,-251.98485747640126 -101.89603677645724,-344.71528502771696 c-57.65170501825872,-167.31794536433043 -57.65170501825872,-167.31794536433043 -28.15548384612634,-195.54024940168736 c14.748110586066181,-14.111152018678474 122.0070966665475,-104.82570071018294 235.9697693770589,-201.58788598112102 c113.9626727105114,-96.7621852709381 211.8364975089506,-179.41321852319768 217.19944681297466,-183.44497624282013 c25.47400919411431,-22.174667457923317 265.4659905491913,806.3515439244841 242.673456007089,838.6056056814635 c-9.385161282042116,14.111152018678474 -497.413547948232,262.06425177545736 -514.8431331863103,262.06425177545736 c-4.022211978018049,0 -26.81474652012033,-78.6192755326372 -50.94801838822862,-175.38146080357532 z" id="svg_16"/>
<path d="M5732.970462723589,13528.985288967688 c-127.37004597057155,-96.7621852709381 -238.6512440290709,-187.47673396244258 -245.35493065910097,-197.5561282614986 c-8.044423956036098,-12.095273158867263 30.836958498138376,-147.15915676621836 111.28119805849936,-378.9852256445075 c68.37760362630684,-199.5720071213098 126.02930864456555,-364.87407362582906 128.71078329657757,-368.9058313454515 c2.6814746520120334,-6.0476365794336315 475.96175073213584,346.73116388752817 497.413547948232,372.9375890650739 c5.362949304024066,6.0476365794336315 -218.54018413898066,673.3035391769442 -241.33271868108292,717.6528740927907 c-16.088847912072197,32.25406175697936 -37.540645128168464,20.158788598112103 -250.71787996312503,-145.14327790640715 z" id="svg_17"/>
<path d="M4739.484104153131,12762.951322239433 c-128.71078329657757,-100.79394299056051 -238.6512440290709,-189.49261282225376 -245.35493065910097,-199.5720071213098 c-13.407373260060165,-20.158788598112103 229.26608274702878,-747.891056989959 249.37714263711905,-747.891056989959 c8.044423956036098,0 473.2802760801238,354.79467932677306 489.36912399219597,374.95346792488516 c5.362949304024066,4.03175771962242 -250.71787996312503,753.9386935693927 -256.0808292671491,753.9386935693927 c-1.3407373260060165,0 -108.59972340648733,-82.65103325225962 -237.3105067030649,-181.4290973830089 z" id="svg_18"/>
<path d="M16083.462619490034,12176.330574034366 l-178.31806435880017,-262.06425177545736 l84.46645153837903,-165.30206650451925 c195.7476495968784,-381.00110450431873 242.673456007089,-467.68389547620075 260.10304124516716,-467.68389547620075 c38.88138245417448,0 435.7396309519553,560.4143230275166 435.7396309519553,614.8430522424193 c0,12.095273158867263 -398.19898582378687,532.1920189901595 -412.94709640985303,538.239655569593 c-5.362949304024066,2.01587885981121 -89.8294008424031,-112.8892161494278 -189.04396296684834,-258.0324940558349 z" id="svg_19"/>
<path d="M3740.634796278649,11988.853840071928 c-136.75520725261367,-106.84157956999415 -241.33271868108292,-199.5720071213098 -241.33271868108292,-215.69903799979951 c0,-44.34933491584663 234.62903205105286,-723.7005106722246 250.71787996312503,-723.7005106722246 c9.385161282042116,0 461.2136401460697,342.69940616790575 489.36912399219597,372.9375890650739 c4.022211978018049,2.01587885981121 -250.71787996312503,755.9545724292038 -254.7400919411431,755.9545724292038 c-1.3407373260060165,0 -111.28119805849936,-84.66691211207083 -244.014193333095,-189.49261282225376 z" id="svg_20"/>
<path d="M15217.34630689015,11331.677331773466 c-124.68857131855953,-98.7780641307493 -229.26608274702878,-187.47673396244258 -231.94755739904087,-199.5720071213098 c-2.6814746520120334,-12.095273158867263 52.28875571423464,-183.44497624282013 120.66635934054146,-383.01698336413006 l124.68857131855953,-360.84231590620664 l252.0586172891311,191.50849168206503 l252.0586172891311,191.50849168206503 l-126.02930864456555,364.87407362582906 c-69.71834095231286,201.58788598112102 -135.41446992660767,368.9058313454515 -144.79963120864977,370.9217102052627 c-10.725898608048132,2.01587885981121 -120.66635934054146,-76.603396672826 -246.695667985107,-175.38146080357532 z" id="svg_21"/>
<path d="M2855.748161114678,11263.137450539887 c-58.992442344264724,-60.47636579433632 -166.25142842474605,-183.44497624282013 -238.6512440290709,-274.15952493432457 l-131.3922579485896,-163.28618764470806 l80.44423956036097,-135.0638836073511 c45.585069084204555,-74.58751781301478 131.3922579485896,-215.69903799979951 193.06617494486636,-314.4771021305488 l111.28119805849936,-179.41321852319768 l79.10350223435496,106.84157956999415 c44.24433175819854,58.46048693452509 132.73299527459565,161.27030878489683 198.42912424889045,227.79431115866674 c64.35539164828879,68.53988123358114 116.64414736252343,129.01624702791744 116.64414736252343,137.07976246716228 c0,24.190546317734526 -277.53262648324534,691.4464489152451 -290.9399997433056,697.4940854946789 c-6.7036866300300835,4.03175771962242 -60.33317967027073,-42.333456056035416 -117.98488468852945,-102.80982185037175 z" id="svg_22"/>
<path d="M14225.200685645697,10565.643365045207 c-124.68857131855953,-96.7621852709381 -229.26608274702878,-185.46085510263134 -231.94755739904087,-199.5720071213098 c-5.362949304024066,-24.190546317734526 238.6512440290709,-751.9228147095816 250.71787996312503,-743.8592992703367 c4.022211978018049,4.03175771962242 117.98488468852945,90.71454869150445 253.39935461513713,193.5243705418762 l244.014193333095,187.47673396244258 l-126.02930864456555,366.88995248564026 c-71.05907827831888,201.58788598112102 -135.41446992660767,368.9058313454515 -144.79963120864977,368.9058313454515 c-9.385161282042116,2.01587885981121 -119.32562201453545,-76.603396672826 -245.35493065910097,-173.36558194376408 z" id="svg_23"/>
<path d="M1994.9947978188152,9926.609766485055 c-76.42202758234293,-183.44497624282013 -221.2216587909927,-592.6683847844957 -214.51797216096264,-604.7636579433631 c2.6814746520120334,-2.01587885981121 117.98488468852945,-80.63515439244841 257.42156659315515,-175.38146080357532 l254.7400919411431,-171.34970308395287 l57.65170501825872,173.36558194376408 c32.177695824144394,96.7621852709381 87.14792619039106,241.90546317734527 123.3478339925535,326.57237528941613 c36.19990780216244,82.65103325225962 63.01465432228277,157.2385510652744 58.992442344264724,165.30206650451925 c-6.7036866300300835,18.142909738300894 -420.99152036588924,463.6521377565784 -439.76184292997334,473.73153205563443 c-8.044423956036098,4.03175771962242 -52.28875571423464,-80.63515439244841 -97.8738247984392,-187.47673396244258 z" id="svg_24"/>
<path d="M13259.869810921364,9819.76818691506 c-109.94046073249334,-86.68279097188204 -217.19944681297466,-171.34970308395287 -237.3105067030649,-187.47673396244258 l-36.19990780216244,-30.238182897168162 l126.02930864456555,-370.9217102052627 c69.71834095231286,-203.60376484093226 130.05152062258358,-368.9058313454515 136.75520725261367,-368.9058313454515 c20.111059890090242,0 486.6876493401839,362.8581947660178 486.6876493401839,378.9852256445075 c0,42.333456056035416 -245.35493065910097,739.8275415507142 -258.7623039191612,737.811662690903 c-9.385161282042116,-2.01587885981121 -105.9182487544753,-74.58751781301478 -217.19944681297466,-159.25442992508562 z" id="svg_25"/>
<path d="M12254.316816416853,9037.60718930831 c-124.68857131855953,-96.7621852709381 -235.9697693770589,-183.44497624282013 -245.35493065910097,-191.50849168206503 c-12.066635934054148,-12.095273158867263 14.748110586066181,-106.84157956999415 105.9182487544753,-372.9375890650739 c68.37760362630684,-195.54024940168736 127.37004597057155,-364.87407362582906 132.73299527459565,-372.9375890650739 c6.7036866300300835,-12.095273158867263 465.23585212408767,322.54061756979365 496.0728106222261,364.87407362582906 c8.044423956036098,8.06351543924484 -244.014193333095,749.9069358497703 -254.7400919411431,749.9069358497703 c-4.022211978018049,-2.01587885981121 -108.59972340648733,-80.63515439244841 -234.62903205105286,-177.39733966338653 z" id="svg_26"/>
<path d="M1556.5736922148476,8253.430312841749 c-30.836958498138376,-270.1277672147022 -46.925806410210576,-479.779168635068 -48.26654373621659,-602.7477790835518 c0,-92.73042755131567 4.022211978018049,-106.84157956999415 30.836958498138376,-114.90509500923899 c16.088847912072197,-6.0476365794336315 140.77741923063172,-14.111152018678474 277.53262648324534,-16.12703087848968 l248.03640531111304,-4.03175771962242 l16.088847912072197,239.889584317534 c9.385161282042116,133.04800474753986 24.133271868108295,300.36595011187035 34.85917047615643,376.96934678469637 c10.725898608048132,74.58751781301478 18.770322564084232,135.0638836073511 17.429585238078214,135.0638836073511 c-1.3407373260060165,0 -119.32562201453545,40.31757719622421 -262.7845158971792,90.71454869150445 c-143.45889388264376,50.396971495280255 -268.1474652012033,90.71454869150445 -276.19188915723936,90.71454869150445 c-8.044423956036098,0 -24.133271868108295,-86.68279097188204 -37.540645128168464,-195.54024940168736 z" id="svg_27"/>
<path d="M11382.837554512942,8366.319528991176 c-58.992442344264724,-46.365213775657836 -168.93290307675807,-133.04800474753986 -245.35493065910097,-193.5243705418762 l-136.75520725261367,-108.85745842980535 l113.9626727105114,-338.66764844828333 c63.01465432228277,-185.46085510263134 122.0070966665475,-354.79467932677306 131.3922579485896,-374.95346792488516 c16.088847912072197,-32.25406175697936 36.19990780216244,-20.158788598112103 258.7623039191612,153.206793345652 c131.3922579485896,102.80982185037175 242.673456007089,189.49261282225376 246.695667985107,193.5243705418762 c6.7036866300300835,8.06351543924484 -245.35493065910097,751.9228147095816 -254.7400919411431,749.9069358497703 c-4.022211978018049,0 -54.97023036624667,-36.28581947660179 -113.9626727105114,-80.63515439244841 z" id="svg_28"/>
<path d="M10256.618200667888,7493.443982692925 c-132.73299527459565,-104.82570071018294 -241.33271868108292,-197.5561282614986 -241.33271868108292,-205.6196437007435 c0,-34.26994061679057 241.33271868108292,-733.7799049712805 253.39935461513713,-733.7799049712805 c9.385161282042116,0 471.9395387541178,354.79467932677306 488.02838666619,374.95346792488516 c6.7036866300300835,6.0476365794336315 -244.014193333095,753.9386935693927 -252.0586172891311,753.9386935693927 c-4.022211978018049,0 -115.30341003651742,-86.68279097188204 -248.03640531111304,-189.49261282225376 z" id="svg_29"/>
<path d="M9271.176266053466,6731.441773684285 c-128.71078329657757,-100.79394299056051 -239.99198135507692,-189.49261282225376 -245.35493065910097,-197.5561282614986 c-13.407373260060165,-18.142909738300894 231.94755739904087,-743.8592992703367 250.71787996312503,-745.8751781301478 c9.385161282042116,0 473.2802760801238,354.79467932677306 489.36912399219597,374.95346792488516 c4.022211978018049,6.0476365794336315 -235.9697693770589,713.6211163731687 -250.71787996312503,737.811662690903 c-5.362949304024066,8.06351543924484 -115.30341003651742,-68.53988123358114 -244.014193333095,-169.33382422414167 z" id="svg_30"/>
<path d="M1793.8841989179123,6687.092438768442 c-126.02930864456555,-34.26994061679057 -233.28829472504685,-66.52400237376993 -237.3105067030649,-74.58751781301478 c-24.133271868108295,-36.28581947660179 142.11815655663776,-895.0502137561774 171.6143777287701,-878.9231828776876 c8.044423956036098,6.0476365794336315 120.66635934054146,70.55576009339237 249.37714263711905,145.14327790640715 c128.71078329657757,74.58751781301478 239.99198135507692,143.12739904659594 245.35493065910097,151.19091448584078 c6.7036866300300835,8.06351543924484 -6.7036866300300835,100.79394299056051 -29.496221172132362,203.60376484093226 c-24.133271868108295,104.82570071018294 -52.28875571423464,264.0801306352686 -65.6961289742948,356.81055818658433 c-26.81474652012033,197.5561282614986 2.6814746520120334,189.49261282225376 -333.8435941754981,96.7621852709381 z" id="svg_31"/>
<path d="M8276.349170157002,5963.391928096216 c-131.3922579485896,-102.80982185037175 -241.33271868108292,-193.5243705418762 -246.695667985107,-199.5720071213098 c-10.725898608048132,-18.142909738300894 235.9697693770589,-741.8434204105254 253.39935461513713,-741.8434204105254 c12.066635934054148,0 477.3024880581418,354.79467932677306 489.36912399219597,372.9375890650739 c4.022211978018049,6.0476365794336315 -250.71787996312503,755.9545724292038 -256.0808292671491,755.9545724292038 c-1.3407373260060165,0 -109.94046073249334,-84.66691211207083 -239.99198135507692,-187.47673396244258 z" id="svg_32"/>
<path d="M7280.18133693453,5193.32620364833 c-132.73299527459565,-104.82570071018294 -241.33271868108292,-201.58788598112102 -241.33271868108292,-215.69903799979951 c0,-44.34933491584663 234.62903205105286,-721.6846318124133 250.71787996312503,-721.6846318124133 c21.451797216096264,0 494.73207329622005,368.9058313454515 490.70986131820194,381.00110450431873 c-36.19990780216244,114.90509500923899 -253.39935461513713,747.891056989959 -256.0808292671491,745.8751781301478 c-1.3407373260060165,0 -111.28119805849936,-84.66691211207083 -244.014193333095,-189.49261282225376 z" id="svg_33"/>
<path d="M2226.9423552178555,5140.913353293241 c-124.68857131855953,-120.95273158867263 -229.26608274702878,-223.76255343904435 -233.28829472504685,-229.81019001847798 c-9.385161282042116,-14.111152018678474 148.82184318666782,-336.6517695884721 269.4882025272093,-550.3349287284605 l105.9182487544753,-185.46085510263134 l195.7476495968784,284.23891923338067 c108.59972340648733,157.2385510652744 199.76986157489645,292.3024346726255 201.11059890090246,302.38182897168156 c2.6814746520120334,10.079394299056052 -28.15548384612634,74.58751781301478 -69.71834095231286,141.11152018678473 c-40.222119780180485,68.53988123358114 -108.59972340648733,199.5720071213098 -151.5033178386799,292.3024346726255 c-42.90359443219253,90.71454869150445 -80.44423956036097,167.31794536433043 -84.46645153837903,167.31794536433043 c-4.022211978018049,-2.01587885981121 -108.59972340648733,-100.79394299056051 -233.28829472504685,-221.74667457923314 z" id="svg_34"/>
<path d="M6278.650554408037,4419.228721480827 c-123.3478339925535,-96.7621852709381 -229.26608274702878,-183.44497624282013 -234.62903205105286,-191.50849168206503 c-5.362949304024066,-8.06351543924484 46.925806410210576,-181.4290973830089 116.64414736252343,-385.0328622239411 l127.37004597057155,-368.9058313454515 l252.0586172891311,191.50849168206503 l252.0586172891311,191.50849168206503 l-126.02930864456555,364.87407362582906 c-69.71834095231286,201.58788598112102 -134.07373260060166,368.9058313454515 -144.79963120864977,370.9217102052627 c-10.725898608048132,2.01587885981121 -119.32562201453545,-76.603396672826 -242.673456007089,-173.36558194376408 z" id="svg_35"/>
<path d="M2992.5033683672914,3931.386037406516 c-87.14792619039106,-189.49261282225376 -156.86626714270392,-346.73116388752817 -154.18479249069188,-350.76292160715064 c57.65170501825872,-78.6192755326372 489.36912399219597,-433.4139548594103 525.5690317943584,-433.4139548594103 c13.407373260060165,0 40.222119780180485,84.66691211207083 190.38470029285432,610.8112945227966 l44.24433175819854,155.2226722054632 l-83.12571421237303,56.4446080747139 c-45.585069084204555,32.25406175697936 -144.79963120864977,112.8892161494278 -219.88092146498667,181.4290973830089 c-75.08129025633693,68.53988123358114 -139.43668190462571,124.98448930829504 -140.77741923063172,124.98448930829504 c-2.6814746520120334,0 -75.08129025633693,-155.2226722054632 -162.22921644672797,-344.71528502771696 z" id="svg_36"/>
<path d="M5416.55645378617,3802.3697903786 c-65.6961289742948,-36.28581947660179 -170.27364040276407,-82.65103325225962 -230.60682007303484,-102.80982185037175 c-61.67391699627675,-18.142909738300894 -111.28119805849936,-42.333456056035416 -111.28119805849936,-54.428729214902674 c0,-46.365213775657836 97.8738247984392,-792.2403919058057 104.57751142846928,-804.335665064673 c12.066635934054148,-18.142909738300894 331.16211952348607,104.82570071018294 474.6210134061298,185.46085510263134 l115.30341003651742,62.49224465414752 l-103.23677410246326,387.0487410837524 c-57.65170501825872,211.66728028017707 -109.94046073249334,387.0487410837524 -116.64414736252343,389.0646199435637 c-6.7036866300300835,2.01587885981121 -65.6961289742948,-26.206425177545736 -132.73299527459565,-62.49224465414752 z" id="svg_37"/>
<path d="M4069.115441150122,3665.2900279114365 c0,-2.01587885981121 -24.133271868108295,-173.36558194376408 -53.62949304024066,-376.96934678469637 c-29.496221172132362,-203.60376484093226 -53.62949304024066,-387.0487410837524 -53.62949304024066,-405.1916508220533 c0,-22.174667457923317 21.451797216096264,-38.301698336413 84.46645153837903,-54.428729214902674 c108.59972340648733,-30.238182897168162 285.57705043928155,-60.47636579433632 412.94709640985303,-72.57163895320357 l103.23677410246326,-8.06351543924484 l9.385161282042116,304.39770783149277 c5.362949304024066,169.33382422414167 6.7036866300300835,360.84231590620664 4.022211978018049,427.3663182799766 l-4.022211978018049,120.95273158867263 l-140.77741923063172,14.111152018678474 c-77.76276490834896,6.0476365794336315 -179.6588016848062,22.174667457923317 -227.9253454210228,34.26994061679057 c-85.80718886438505,22.174667457923317 -134.07373260060166,28.22230403735695 -134.07373260060166,16.12703087848968 z" id="svg_38"/>
</g></g></svg>