<?xml version="1.0" standalone="no"?>
<!DOCTYPE svg PUBLIC "-//W3C//DTD SVG 20010904//EN"
 "http://www.w3.org/TR/2001/REC-SVG-20010904/DTD/svg10.dtd">
<svg version="1.0" xmlns="http://www.w3.org/2000/svg"
 width="2600.000000pt" height="2600.000000pt" viewBox="0 0 2600.000000 2600.000000"
 preserveAspectRatio="xMidYMid meet">
<metadata>
Created by potrace 1.11, written by Peter Selinger 2001-2013
</metadata>
<g transform="translate(0.000000,2600.000000) scale(0.100000,-0.100000)"
fill="#000000" stroke="none">
<path d="M24434 24439 c-39 -11 -91 -59 -131 -122 -30 -45 -55 -129 -67 -222
-3 -22 -8 -60 -11 -85 -3 -25 -8 -56 -10 -70 -2 -14 -6 -56 -10 -95 -3 -38 -7
-86 -10 -105 -3 -19 -7 -53 -9 -75 -8 -67 -53 -347 -72 -450 -57 -317 -183
-787 -281 -1055 -155 -423 -311 -742 -519 -1063 -18 -29 -37 -56 -41 -62 -5
-5 -19 -26 -33 -45 -13 -19 -27 -37 -31 -40 -3 -3 -11 -14 -17 -25 -5 -11 -33
-49 -62 -85 -369 -462 -827 -795 -1318 -959 -187 -62 -397 -113 -527 -127 -33
-3 -63 -8 -66 -10 -27 -16 -587 -25 -769 -11 -213 16 -246 19 -270 23 -127 21
-784 21 -910 0 -14 -2 -63 -10 -110 -16 -47 -7 -146 -28 -220 -47 -74 -19
-139 -36 -145 -38 -5 -1 -18 -5 -27 -9 -9 -4 -22 -9 -30 -10 -7 -2 -20 -6 -28
-9 -8 -3 -44 -16 -80 -28 -177 -59 -521 -239 -670 -352 -190 -143 -347 -286
-465 -421 -27 -32 -56 -64 -63 -72 -8 -8 -43 -51 -78 -97 -36 -45 -71 -89 -79
-98 -19 -25 -107 -157 -141 -212 -16 -27 -37 -61 -46 -75 -10 -15 -21 -33 -25
-41 -3 -8 -30 -56 -58 -105 -28 -50 -61 -111 -73 -136 -12 -25 -27 -52 -32
-60 -5 -8 -24 -48 -41 -88 -27 -61 -35 -71 -51 -66 -21 6 -90 -58 -193 -180
-27 -33 -57 -67 -65 -76 -59 -62 -163 -195 -174 -222 -13 -29 -11 -37 21 -107
126 -275 289 -730 327 -916 19 -89 61 -252 67 -259 10 -11 59 3 184 51 191 74
350 147 349 159 -1 5 -5 29 -8 53 -6 48 -69 289 -126 485 l-37 130 29 90 c17
50 36 105 43 121 7 17 16 41 20 55 7 23 25 70 73 185 34 81 164 329 214 408
47 75 183 265 197 277 3 3 28 32 56 65 77 93 270 278 338 324 12 8 38 27 57
43 49 40 47 39 135 93 150 94 272 155 418 209 107 40 311 101 367 109 19 3 60
10 90 16 155 28 266 36 520 36 210 -1 312 -5 475 -20 28 -3 76 -7 108 -10 161
-15 252 -18 472 -18 220 0 367 5 485 19 464 52 947 224 1348 478 79 51 207
141 230 163 7 7 17 13 21 13 4 0 24 16 44 35 20 19 40 35 43 35 3 0 11 6 18
13 8 6 51 46 96 87 144 130 305 299 405 425 22 28 42 52 45 55 3 3 35 46 71
95 105 145 204 295 294 447 6 9 30 54 54 100 24 46 47 88 52 94 19 24 140 280
203 429 91 215 95 226 102 250 1 6 14 38 27 72 36 90 127 367 153 468 1 6 14
48 27 95 25 85 64 227 72 265 41 174 94 419 98 450 4 22 11 65 17 95 11 57 54
330 65 410 3 25 10 77 15 115 21 153 25 217 25 385 0 186 -3 209 -31 280 -36
93 -90 150 -177 188 -32 14 -88 14 -133 1z"/>
<path d="M14029 19586 c-2 -2 -21 -7 -43 -10 -112 -18 -388 -100 -447 -134
-31 -18 -34 -23 -31 -63 1 -24 11 -87 21 -139 26 -129 34 -172 37 -190 0 -8 7
-40 13 -71 6 -30 14 -66 16 -80 16 -86 53 -261 57 -264 7 -8 468 112 485 127
7 5 10 25 8 46 -2 20 -6 98 -10 172 -3 74 -8 166 -10 204 -3 37 -7 118 -10
180 -5 118 -14 206 -22 219 -4 7 -56 10 -64 3z"/>
<path d="M14716 19562 c-6 -10 -17 -124 -32 -317 -3 -44 -7 -91 -9 -105 -5
-33 -18 -269 -19 -344 -1 -66 -12 -57 109 -91 73 -21 231 -75 302 -103 39 -16
54 -18 61 -9 16 21 109 395 139 557 2 14 13 64 24 112 10 48 19 94 19 101 0
22 -193 99 -430 172 -116 35 -155 42 -164 27z"/>
<path d="M12885 19059 c-120 -89 -347 -273 -398 -322 -45 -44 -46 -46 -36 -82
6 -21 12 -45 14 -54 5 -25 118 -362 153 -456 39 -103 70 -175 77 -175 7 0 215
152 300 220 39 30 88 69 110 85 85 63 83 45 31 202 -65 198 -197 586 -205 600
-4 8 -19 2 -46 -18z"/>
<path d="M15859 18963 c-6 -15 -17 -41 -24 -58 -17 -36 -125 -314 -130 -335
-2 -8 -24 -73 -50 -145 -25 -71 -47 -132 -47 -135 -2 -24 17 -48 121 -154 66
-67 156 -159 201 -206 l81 -85 17 24 c9 12 92 154 184 314 l166 291 -76 90
c-43 50 -84 98 -92 107 -168 178 -284 290 -323 310 -14 8 -19 4 -28 -18z"/>
<path d="M11835 18249 c-49 -38 -99 -78 -110 -87 -11 -9 -52 -42 -90 -72 -87
-69 -109 -87 -153 -128 l-36 -33 18 -67 c9 -37 37 -124 62 -193 24 -70 44
-133 44 -141 0 -8 4 -18 9 -23 4 -6 23 -53 41 -105 50 -145 77 -203 92 -194
37 22 234 170 241 181 4 7 13 13 18 13 6 0 16 6 24 13 19 18 44 38 120 96 39
30 71 57 73 60 2 7 -188 574 -207 616 -5 11 -15 39 -22 63 -23 79 -24 79 -124
1z"/>
<path d="M14198 17915 c-2 -2 -29 -6 -60 -9 -193 -22 -466 -137 -615 -260 -10
-8 -92 -71 -183 -140 -91 -69 -169 -129 -175 -133 -5 -5 -66 -51 -135 -103
-69 -52 -127 -97 -130 -100 -3 -3 -50 -39 -105 -80 -55 -41 -102 -77 -105 -80
-3 -3 -21 -17 -40 -30 -19 -13 -37 -27 -40 -30 -3 -4 -50 -40 -105 -81 -55
-41 -102 -76 -105 -80 -3 -3 -32 -25 -65 -50 -33 -24 -62 -46 -65 -50 -3 -3
-32 -25 -65 -50 -33 -24 -62 -46 -65 -50 -3 -3 -32 -25 -65 -49 -33 -24 -64
-48 -70 -52 -37 -30 -64 -51 -145 -113 -51 -38 -110 -83 -130 -100 -21 -16
-51 -40 -67 -52 -58 -44 -409 -314 -423 -326 -8 -7 -33 -26 -55 -42 -22 -17
-46 -36 -55 -42 -8 -7 -82 -65 -165 -128 -82 -64 -157 -122 -165 -128 -8 -7
-33 -26 -55 -42 -22 -17 -63 -48 -90 -70 -28 -22 -64 -50 -80 -63 -75 -57
-292 -224 -305 -235 -8 -7 -51 -39 -95 -72 -44 -33 -82 -62 -85 -65 -3 -3 -25
-21 -50 -40 -25 -19 -47 -37 -50 -40 -3 -3 -21 -17 -40 -30 -19 -13 -37 -27
-40 -30 -5 -5 -76 -61 -755 -583 -170 -131 -323 -249 -340 -262 -40 -32 -184
-144 -225 -175 -18 -14 -74 -57 -124 -96 -388 -300 -543 -420 -553 -429 -21
-17 -36 -29 -123 -95 -46 -36 -91 -71 -100 -77 -8 -7 -62 -49 -120 -94 -110
-85 -164 -127 -184 -144 -6 -5 -38 -30 -71 -54 -33 -25 -62 -47 -65 -50 -3 -4
-23 -19 -45 -36 -22 -16 -42 -31 -45 -34 -3 -4 -34 -28 -70 -56 -36 -27 -69
-53 -75 -57 -5 -5 -35 -27 -65 -51 -30 -23 -56 -45 -58 -49 -2 -5 -8 -8 -13
-8 -5 0 -17 -8 -28 -17 -23 -22 -44 -38 -141 -111 -41 -32 -77 -59 -80 -62 -4
-5 -167 -130 -235 -182 -5 -4 -24 -19 -41 -32 -17 -14 -156 -123 -310 -242
-153 -119 -292 -227 -309 -240 -16 -13 -115 -90 -220 -171 -219 -170 -487
-378 -561 -437 -29 -23 -62 -49 -75 -58 -13 -9 -37 -28 -54 -42 -16 -13 -70
-56 -120 -95 -49 -39 -94 -74 -100 -78 -5 -5 -30 -24 -55 -43 -24 -19 -50 -39
-56 -45 -6 -5 -26 -21 -44 -35 -33 -24 -140 -108 -170 -133 -8 -7 -33 -26 -55
-42 -22 -16 -42 -32 -45 -35 -3 -3 -25 -21 -50 -40 -25 -19 -47 -37 -50 -40
-3 -3 -23 -19 -45 -35 -22 -16 -47 -35 -55 -42 -8 -7 -121 -95 -250 -196 -232
-182 -307 -253 -417 -397 -65 -86 -173 -247 -173 -259 0 -5 -3 -11 -7 -13 -15
-6 -134 -239 -197 -386 -64 -148 -182 -514 -202 -627 -3 -16 -16 -82 -29 -145
-23 -115 -29 -149 -40 -225 -4 -22 -8 -51 -10 -65 -21 -121 -29 -789 -12 -969
10 -115 51 -362 83 -496 14 -60 27 -117 29 -125 57 -248 178 -569 308 -820 45
-85 201 -331 230 -363 7 -6 38 -44 69 -83 111 -139 238 -258 408 -382 93 -68
331 -193 391 -206 13 -3 60 -15 104 -26 106 -26 200 -35 375 -34 225 1 364 32
545 120 177 85 255 140 850 597 127 97 261 201 299 229 37 29 73 58 80 63 6 6
29 23 51 40 22 16 47 35 55 42 8 6 47 36 85 65 186 143 250 192 255 198 3 3
21 17 40 30 19 14 42 30 50 37 16 14 626 482 680 523 29 22 62 48 107 85 7 5
23 18 35 27 13 10 77 59 143 110 66 51 125 96 130 100 6 5 48 38 95 74 47 36
99 76 115 89 176 136 328 254 351 270 15 11 39 30 53 42 14 12 94 74 176 137
83 63 155 119 160 123 6 5 44 35 85 66 41 32 89 69 105 82 17 13 86 67 155
120 69 53 139 107 155 120 17 12 107 82 200 154 94 72 177 137 185 144 8 7 33
26 55 42 22 16 42 32 45 35 3 3 48 38 101 78 52 39 105 81 117 92 11 11 24 20
27 20 4 0 12 6 19 13 7 6 26 22 42 34 48 36 548 423 564 436 8 7 116 91 240
186 124 96 257 200 296 230 39 31 87 68 105 82 94 74 595 463 886 689 180 140
335 260 343 267 8 7 81 63 161 125 80 62 161 125 180 140 19 15 171 133 339
264 168 130 319 247 335 260 17 13 68 53 115 89 47 36 92 71 100 78 8 7 44 35
80 62 36 27 74 57 85 66 38 32 230 181 273 212 23 17 42 34 42 39 0 4 4 8 9 8
5 0 20 9 33 20 12 11 136 108 273 215 138 108 264 206 280 219 17 13 68 54
115 90 47 37 92 72 100 79 8 7 58 45 110 86 52 41 110 90 128 110 18 20 47 52
65 71 32 34 151 187 172 221 6 9 26 41 46 70 152 229 316 590 401 884 15 55
30 109 32 120 3 11 14 58 25 105 27 112 63 324 76 445 4 33 8 71 11 85 26 166
26 742 -1 920 -2 14 -6 48 -10 75 -7 57 -8 64 -30 195 -9 52 -20 111 -25 130
-5 19 -11 46 -14 60 -43 243 -164 588 -300 860 -174 349 -391 629 -641 829
-38 31 -72 58 -75 61 -3 3 -41 28 -85 56 -175 109 -339 176 -540 220 -29 6
-381 14 -387 9z m307 -856 c289 -47 557 -227 782 -523 41 -55 77 -107 80 -115
4 -9 12 -23 19 -31 25 -30 124 -228 169 -339 42 -101 98 -268 110 -325 5 -25
8 -40 28 -126 20 -84 45 -254 54 -366 15 -175 8 -588 -11 -690 -2 -10 -7 -44
-11 -74 -32 -252 -131 -577 -242 -795 -67 -131 -175 -304 -195 -313 -5 -2 -8
-8 -8 -13 0 -23 -252 -278 -336 -339 -49 -36 -493 -378 -529 -408 -11 -9 -47
-37 -80 -61 -33 -25 -62 -47 -65 -51 -3 -3 -23 -19 -45 -36 -22 -16 -46 -34
-55 -41 -16 -13 -335 -260 -617 -478 -92 -71 -175 -135 -183 -142 -24 -19
-384 -297 -535 -413 -76 -58 -142 -110 -149 -115 -6 -6 -38 -31 -71 -55 -33
-25 -62 -47 -65 -51 -3 -3 -36 -30 -75 -59 -181 -139 -240 -185 -243 -192 -2
-5 -10 -8 -17 -8 -7 0 -15 -4 -17 -8 -1 -5 -34 -33 -73 -62 -38 -30 -122 -95
-186 -145 -64 -49 -128 -99 -143 -110 -82 -60 -231 -179 -234 -187 -2 -5 -10
-8 -17 -8 -7 0 -15 -3 -17 -8 -1 -4 -93 -77 -203 -162 -110 -85 -201 -158
-203 -162 -2 -5 -10 -8 -17 -8 -7 0 -15 -4 -17 -8 -1 -5 -52 -46 -113 -92 -60
-46 -112 -87 -115 -90 -3 -3 -23 -19 -45 -36 -22 -16 -103 -79 -181 -139 -78
-61 -154 -119 -168 -130 -15 -11 -37 -28 -49 -37 -12 -10 -110 -85 -217 -168
-107 -83 -202 -156 -210 -163 -9 -7 -54 -41 -100 -77 -47 -35 -90 -69 -96 -75
-7 -5 -24 -19 -40 -30 -22 -16 -110 -84 -159 -123 -5 -4 -100 -77 -210 -162
-110 -85 -204 -158 -210 -162 -5 -5 -39 -31 -75 -58 -36 -27 -72 -56 -80 -63
-8 -7 -33 -27 -55 -43 -45 -33 -60 -44 -78 -59 -7 -6 -99 -78 -206 -160 -284
-219 -329 -254 -417 -320 -43 -33 -83 -66 -87 -72 -4 -7 -14 -13 -22 -13 -7 0
-15 -4 -17 -9 -1 -5 -34 -32 -73 -62 -38 -29 -76 -58 -85 -65 -8 -7 -78 -61
-155 -120 -171 -132 -282 -218 -313 -244 -13 -11 -27 -20 -32 -20 -5 0 -10 -4
-12 -8 -1 -4 -59 -50 -128 -102 -69 -52 -131 -101 -138 -108 -8 -7 -30 -25
-50 -40 -21 -15 -43 -33 -50 -39 -7 -7 -17 -13 -20 -13 -4 0 -18 -10 -32 -22
-14 -13 -63 -52 -110 -88 -47 -35 -87 -67 -90 -70 -3 -3 -41 -32 -84 -65 -43
-33 -84 -64 -90 -70 -6 -5 -56 -44 -111 -85 -55 -41 -105 -79 -111 -85 -19
-16 -45 -37 -109 -85 -72 -54 -82 -62 -98 -75 -7 -6 -59 -47 -117 -90 -58 -44
-107 -82 -110 -85 -3 -3 -25 -21 -50 -40 -25 -19 -51 -40 -58 -47 -7 -7 -17
-13 -20 -13 -4 0 -18 -10 -32 -23 -14 -12 -43 -36 -65 -52 -45 -34 -61 -46
-78 -60 -7 -6 -61 -48 -122 -95 -60 -46 -114 -88 -120 -92 -5 -5 -35 -27 -65
-50 -30 -24 -57 -45 -60 -48 -3 -3 -18 -14 -35 -26 -16 -11 -60 -41 -97 -67
-38 -26 -71 -47 -74 -47 -3 0 -19 -9 -34 -20 -106 -75 -317 -140 -473 -144
-76 -2 -179 8 -262 27 -125 29 -324 129 -422 213 -12 11 -34 28 -49 39 -33 25
-105 100 -209 220 -78 89 -265 410 -296 505 -4 14 -19 55 -33 92 -31 83 -79
254 -105 373 -20 91 -23 105 -41 205 -16 94 -23 226 -24 450 0 297 13 437 59
645 27 118 27 118 46 185 7 25 13 47 14 50 17 61 28 96 35 109 4 9 16 39 26
66 40 115 162 363 200 406 8 8 14 19 14 24 0 7 85 130 105 151 5 6 21 26 35
44 54 70 153 159 354 314 114 88 254 197 310 241 57 44 115 89 130 100 80 59
231 179 234 187 2 5 10 8 17 8 7 0 15 3 17 8 2 4 93 77 203 162 110 85 202
158 203 162 2 5 10 8 17 8 7 0 15 4 17 8 2 4 37 34 78 66 41 31 89 68 105 81
195 151 292 226 300 233 6 4 60 46 120 92 61 47 117 90 125 97 8 6 53 41 100
77 84 64 110 84 153 118 12 10 27 21 32 25 6 5 50 40 100 78 49 39 101 79 116
90 84 63 185 141 189 146 3 3 41 33 85 66 44 34 238 183 430 333 193 149 360
279 373 288 13 9 32 24 41 32 10 8 33 26 51 40 18 14 168 130 334 259 165 128
317 245 336 260 64 48 365 281 380 294 8 7 33 26 55 42 22 17 46 35 55 42 8 7
74 57 145 112 72 55 135 104 140 109 6 4 40 31 77 59 37 28 127 98 200 155 73
56 138 106 143 110 6 5 44 34 85 66 41 32 149 116 240 186 91 70 179 138 195
151 30 23 253 195 309 238 16 12 65 50 110 85 44 35 97 75 116 90 67 52 225
174 255 198 17 13 55 43 86 66 31 24 103 79 160 122 57 44 129 99 159 123 30
24 65 51 78 61 12 9 28 22 35 27 11 10 77 61 144 112 15 12 46 35 68 52 22 17
45 34 50 38 6 5 24 19 41 33 16 14 43 34 58 45 16 11 54 40 85 65 32 25 73 56
91 70 18 14 128 99 244 189 211 163 322 249 341 263 6 4 25 20 44 35 19 16 76
60 126 98 105 80 512 394 535 412 162 129 498 384 585 444 28 19 53 37 56 41
10 14 213 114 264 130 135 44 291 53 450 27z"/>
<path d="M13060 14885 c-52 -17 -88 -35 -155 -79 -64 -42 -180 -156 -190 -187
-4 -11 -11 -19 -16 -19 -5 0 -9 -4 -9 -9 0 -6 -13 -30 -30 -54 -16 -25 -30
-49 -30 -55 0 -5 -7 -15 -15 -22 -9 -7 -13 -15 -10 -18 3 -3 0 -11 -5 -17 -10
-12 -58 -136 -65 -168 -2 -10 -6 -26 -9 -35 -9 -29 -42 -214 -60 -337 -6 -44
-10 -67 -32 -200 -34 -208 -58 -279 -108 -322 -62 -54 -109 -40 -311 90 -238
154 -323 187 -475 181 -176 -6 -311 -86 -449 -266 -57 -75 -125 -205 -164
-313 -23 -66 -69 -253 -81 -337 -12 -77 -16 -104 -20 -148 -5 -47 -23 -176
-31 -222 -3 -16 -7 -42 -10 -58 -12 -68 -48 -152 -80 -186 -6 -6 -26 -16 -45
-22 -56 -19 -113 5 -257 105 -35 23 -65 43 -69 43 -3 0 -20 11 -37 24 -42 32
-148 84 -207 102 -112 33 -273 22 -375 -26 -134 -64 -265 -209 -355 -394 -76
-157 -122 -335 -160 -619 -25 -189 -46 -307 -67 -372 -16 -53 -63 -111 -101
-126 -24 -9 -112 9 -112 23 0 4 -5 8 -12 8 -6 0 -72 40 -147 89 -240 156 -336
193 -477 186 -125 -7 -246 -64 -351 -166 -58 -56 -143 -159 -143 -173 0 -3
-15 -31 -34 -63 -30 -52 -92 -205 -100 -250 -2 -10 -12 -47 -21 -83 -9 -36
-18 -72 -20 -80 -9 -47 -35 -212 -40 -255 -4 -27 -8 -61 -10 -75 -2 -14 -7
-50 -10 -80 -4 -30 -16 -91 -27 -135 -11 -44 -22 -90 -25 -102 -3 -13 -9 -23
-14 -23 -5 0 -9 -6 -9 -14 0 -25 -59 -66 -95 -66 -33 0 -175 66 -175 82 0 4
-4 8 -9 8 -5 0 -58 31 -118 69 -197 125 -272 153 -406 153 -170 0 -363 -122
-490 -310 -90 -133 -170 -353 -202 -557 -30 -187 -50 -323 -61 -400 -18 -137
-60 -247 -107 -280 -41 -29 -116 -14 -197 39 -265 174 -370 229 -464 244 -61
10 -165 8 -217 -3 -16 -4 -32 -7 -36 -7 -5 -1 -30 -14 -56 -30 -26 -15 -50
-28 -53 -28 -3 0 -16 -10 -30 -23 l-25 -23 109 -320 c60 -175 119 -340 131
-366 l23 -47 42 5 c52 7 78 -5 254 -120 172 -111 205 -129 292 -161 230 -83
459 3 635 239 120 160 192 342 235 591 14 81 13 74 34 230 22 161 23 165 30
205 4 19 8 42 10 50 7 39 30 108 46 140 53 101 104 106 250 20 14 -8 27 -17
30 -20 23 -26 290 -179 345 -199 130 -47 344 -27 429 40 13 10 28 19 32 19 10
0 105 80 122 102 7 9 18 23 25 30 91 99 196 304 221 434 2 10 11 46 19 79 9
33 18 78 22 100 3 23 8 52 11 65 5 27 5 27 28 185 9 61 18 125 21 142 3 18 9
52 14 75 6 24 12 58 16 75 8 46 36 115 60 145 39 48 78 56 150 28 27 -10 215
-128 225 -141 18 -23 216 -122 280 -139 101 -28 291 -7 341 36 8 8 19 14 23
14 32 0 180 134 243 221 34 45 105 170 108 189 0 3 12 37 27 75 14 39 31 86
37 105 16 52 58 258 65 315 4 28 8 61 11 75 4 26 6 35 25 176 25 186 62 293
114 327 62 41 136 11 372 -150 216 -147 405 -176 590 -93 114 51 209 135 291
255 36 55 76 122 78 135 0 3 11 28 24 55 34 75 73 214 97 345 2 14 9 48 14 75
5 28 19 115 30 195 12 80 23 156 25 170 17 96 28 145 36 168 17 45 61 103 90
117 49 26 86 10 269 -109 263 -173 311 -191 500 -189 70 0 95 5 143 27 157 71
259 168 366 346 73 122 135 314 167 520 3 19 7 42 9 50 2 8 7 38 10 65 3 28
10 75 15 105 5 30 12 75 15 100 27 201 67 303 131 336 58 30 87 20 279 -101
183 -115 231 -141 318 -172 73 -25 184 -36 222 -22 11 4 45 15 75 23 31 9 84
33 117 55 l62 40 -29 83 c-175 511 -220 642 -220 645 0 1 -25 3 -55 3 -71 0
-115 21 -285 134 -135 90 -228 142 -272 152 -75 18 -257 23 -298 9z"/>
<path d="M10880 17504 c-19 -13 -42 -30 -50 -37 -8 -7 -31 -23 -50 -37 -39
-27 -176 -136 -202 -159 -9 -9 -41 -38 -71 -64 l-55 -48 34 -112 c18 -62 61
-193 94 -292 34 -99 73 -215 87 -257 14 -43 30 -78 34 -78 9 0 193 141 197
152 2 4 8 8 13 8 5 0 17 8 27 18 11 9 74 59 141 111 67 52 120 99 118 105 -3
6 -21 61 -42 121 -71 208 -166 470 -191 523 -13 29 -24 57 -24 62 0 16 -23 10
-60 -16z"/>
<path d="M9918 16763 c-1 -5 -23 -21 -47 -36 -31 -21 -301 -227 -410 -314 -8
-6 76 -296 101 -348 5 -12 11 -30 13 -40 2 -11 4 -20 5 -20 0 0 27 -78 59
-173 32 -95 61 -175 64 -178 8 -9 375 275 450 348 l38 37 -20 73 c-37 141
-158 489 -208 600 -24 54 -37 68 -45 51z"/>
<path d="M8911 15983 c-36 -25 -67 -47 -144 -109 -29 -22 -109 -84 -179 -137
l-127 -97 24 -88 c13 -48 64 -204 113 -347 103 -297 109 -315 117 -315 8 0
392 291 438 332 55 49 52 72 -48 353 -31 88 -57 165 -58 170 -2 6 -5 15 -8 20
-4 6 -12 28 -18 50 -7 22 -16 49 -21 60 -5 11 -19 45 -32 76 l-23 55 -34 -23z"/>
<path d="M17340 15309 c-30 -4 -80 -10 -110 -14 -30 -3 -66 -8 -80 -10 -71
-10 -228 -28 -247 -28 -7 0 -14 -3 -14 -6 -2 -9 -7 -272 -11 -526 l-3 -220 25
-12 c43 -20 333 -77 456 -89 35 -4 54 -1 61 8 17 21 26 172 27 458 0 251 -7
421 -20 441 -6 10 -6 10 -84 -2z"/>
<path d="M7840 15158 c-84 -63 -343 -262 -362 -278 -5 -3 1 -39 13 -80 24 -88
117 -386 129 -415 5 -11 14 -38 21 -60 7 -22 18 -53 24 -70 7 -16 20 -51 30
-77 l18 -48 36 22 c34 21 235 158 256 176 8 6 65 50 193 147 11 9 11 21 -3 75
-9 36 -28 97 -42 135 -13 39 -26 75 -27 80 -2 6 -6 17 -9 25 -3 8 -12 35 -20
60 -72 214 -137 380 -151 380 -6 0 -54 -33 -106 -72z"/>
<path d="M6736 14304 c-120 -91 -229 -176 -241 -187 l-23 -22 28 -85 c15 -47
38 -116 49 -155 63 -205 167 -485 181 -485 13 0 154 90 200 127 8 7 60 47 115
90 55 42 102 80 105 83 3 3 19 16 37 28 32 22 32 22 18 65 -7 23 -32 101 -55
172 -59 186 -182 535 -189 534 -3 0 -105 -74 -225 -165z"/>
<path d="M16759 13729 c-6 -13 -33 -102 -59 -199 -27 -96 -68 -238 -93 -315
-50 -155 -50 -158 11 -210 132 -112 201 -171 227 -194 17 -14 55 -46 85 -71
30 -25 57 -47 60 -50 44 -45 45 -45 78 32 57 134 198 639 204 731 l3 38 -95
51 c-160 86 -304 158 -316 158 -6 0 -23 9 -38 21 -14 11 -26 17 -26 14 0 -4
-6 -2 -14 4 -12 10 -17 8 -27 -10z"/>
<path d="M5944 13680 c-18 -7 -298 -212 -314 -229 -3 -4 -27 -24 -55 -46 -89
-70 -88 -70 -82 -112 6 -34 71 -234 192 -590 21 -62 42 -113 46 -113 11 0 209
144 344 249 144 113 145 114 145 126 0 33 -226 693 -244 712 -7 7 -19 8 -32 3z"/>
<path d="M4934 12911 c-37 -28 -82 -62 -268 -204 -42 -33 -97 -78 -123 -101
l-47 -43 14 -59 c7 -32 15 -64 16 -71 13 -72 194 -582 215 -606 7 -9 153 96
364 262 66 52 122 96 124 97 7 6 -171 548 -209 639 -5 11 -14 38 -21 60 -7 22
-16 43 -19 48 -4 4 -24 -6 -46 -22z"/>
<path d="M16230 12382 c-59 -79 -152 -211 -241 -342 l-84 -125 26 -50 c258
-498 293 -562 312 -576 11 -8 95 83 167 181 30 41 58 80 63 85 27 35 87 127
87 135 0 4 3 10 8 12 22 10 116 183 109 202 -5 14 -267 363 -293 391 -11 11
-38 46 -62 78 -23 31 -46 57 -50 57 -4 -1 -23 -22 -42 -48z"/>
<path d="M3899 12111 c-48 -36 -101 -77 -120 -91 -54 -41 -213 -172 -229 -190
-54 -58 -53 -53 -35 -116 9 -33 35 -115 58 -184 23 -69 42 -127 42 -130 1 -3
5 -12 8 -20 4 -8 27 -70 51 -137 25 -66 52 -138 61 -159 l15 -37 23 20 c12 10
35 27 50 37 16 9 36 24 45 31 9 8 85 66 167 129 83 63 163 125 178 138 l28 23
-125 370 c-69 204 -127 373 -128 376 -2 4 -42 -23 -89 -60z"/>
<path d="M15389 11458 c-200 -140 -399 -308 -399 -337 0 -9 16 -65 36 -126 20
-60 40 -123 44 -140 12 -43 149 -434 158 -451 6 -10 17 -6 49 19 22 18 54 41
69 52 15 11 39 29 53 41 14 11 73 56 131 100 58 43 110 83 116 89 6 5 27 21
47 35 20 14 37 30 37 36 0 24 -203 591 -248 692 l-19 42 -74 -52z"/>
<path d="M2865 11268 c-80 -82 -158 -169 -221 -247 -10 -13 -24 -28 -29 -35
-6 -6 -37 -44 -69 -84 l-59 -73 16 -32 c25 -48 61 -108 136 -226 37 -58 70
-113 74 -121 4 -8 40 -68 81 -133 l74 -119 42 54 c113 145 124 157 216 256
131 140 137 149 129 180 -7 29 -97 261 -147 377 -98 228 -130 295 -141 295 -6
0 -52 -42 -102 -92z"/>
<path d="M14440 10723 c-99 -65 -383 -288 -427 -336 l-22 -24 28 -94 c16 -52
57 -175 91 -274 34 -99 63 -184 64 -190 2 -5 9 -23 15 -40 7 -16 14 -34 15
-40 1 -5 10 -31 21 -56 l19 -46 121 90 c66 50 122 94 123 99 2 4 10 8 17 8 7
0 15 4 17 8 2 4 41 37 88 72 46 36 95 74 108 86 l24 21 -47 134 c-124 357
-216 601 -227 598 -2 0 -14 -7 -28 -16z"/>
<path d="M2040 10023 c-23 -49 -62 -137 -85 -198 -53 -140 -79 -209 -80 -215
-2 -15 -49 -147 -55 -155 -6 -9 -18 -46 -25 -81 -2 -6 -6 -21 -9 -32 -6 -16
10 -31 96 -88 57 -38 112 -77 122 -86 11 -10 25 -18 32 -18 7 0 14 -3 16 -8 3
-8 210 -149 230 -157 10 -4 19 12 32 52 31 100 112 324 159 438 64 158 65 162
20 210 -21 22 -72 78 -113 124 -103 117 -281 301 -290 301 -4 0 -27 -39 -50
-87z"/>
<path d="M13445 9956 c-63 -44 -140 -101 -153 -113 -7 -7 -17 -13 -21 -13 -4
0 -20 -13 -37 -28 -16 -15 -69 -59 -119 -97 -49 -38 -98 -77 -109 -87 -18 -16
-16 -23 59 -245 107 -317 177 -503 189 -503 6 0 46 26 88 58 42 31 87 64 99
72 22 15 65 49 139 110 24 19 49 39 57 43 7 5 32 26 55 48 l42 39 -14 53 c-17
69 -152 466 -180 532 -4 11 -19 47 -31 80 -13 33 -25 63 -28 66 -4 3 -20 -3
-36 -15z"/>
<path d="M12351 9110 c-72 -54 -164 -125 -204 -157 -41 -32 -88 -69 -105 -82
-38 -29 -40 -54 -12 -137 11 -32 22 -67 25 -77 10 -42 180 -530 191 -548 6
-11 25 1 179 110 158 113 240 175 282 215 l35 32 -17 65 c-9 35 -18 71 -22 79
-3 8 -45 130 -93 270 -48 140 -93 269 -100 285 -7 17 -13 33 -12 38 4 18 -24
0 -147 -93z"/>
<path d="M1584 8418 c-4 -18 -8 -35 -9 -38 -1 -3 -5 -34 -9 -70 -4 -36 -9 -76
-11 -90 -2 -14 -6 -56 -10 -95 -3 -38 -8 -88 -11 -110 -20 -168 -30 -460 -15
-469 24 -15 118 -22 432 -30 l116 -3 2 61 c2 34 4 79 6 101 2 22 6 85 10 140
4 55 8 114 11 130 2 17 6 57 9 90 3 33 10 97 16 143 6 46 9 85 6 88 -7 7 -519
184 -533 184 -1 0 -6 -15 -10 -32z"/>
<path d="M11415 8389 c-44 -32 -87 -65 -95 -72 -17 -14 -238 -188 -288 -227
l-33 -25 66 -195 c36 -107 70 -203 75 -212 6 -10 10 -27 10 -37 0 -11 5 -23
10 -26 6 -3 10 -16 10 -29 0 -12 3 -26 7 -29 3 -4 20 -48 38 -99 21 -62 37
-94 48 -96 14 -3 99 47 117 68 3 3 19 14 35 24 17 11 39 27 50 37 11 10 76 62
145 115 69 53 129 100 134 104 7 7 -97 356 -124 415 -5 11 -35 92 -65 180 -31
88 -58 161 -58 162 -1 1 -38 -25 -82 -58z"/>
<path d="M10364 7574 c-332 -256 -348 -271 -339 -317 5 -24 89 -287 120 -375
2 -7 4 -14 5 -17 0 -3 7 -19 15 -35 9 -17 13 -30 9 -30 -4 0 -2 -6 3 -12 5 -7
27 -61 48 -120 22 -60 42 -108 45 -108 4 0 214 153 250 183 8 6 35 28 60 47
25 19 47 37 50 40 3 3 33 27 66 53 l62 48 -34 102 c-95 291 -212 638 -219 645
-1 1 -65 -45 -141 -104z"/>
<path d="M9480 6882 c-47 -30 -245 -174 -255 -186 -6 -6 -30 -27 -55 -46 -62
-48 -61 -47 -100 -80 -19 -16 -38 -30 -41 -30 -4 0 4 -37 18 -82 13 -46 26
-92 28 -102 9 -37 157 -471 165 -481 4 -5 13 -27 19 -47 15 -44 18 -44 113 30
33 26 70 54 81 62 22 15 152 115 174 135 7 5 39 30 72 55 33 25 60 51 60 58 2
26 -231 708 -246 722 -4 5 -19 1 -33 -8z"/>
<path d="M1805 6689 c-115 -33 -218 -63 -228 -66 -17 -5 -18 -14 -13 -85 3
-43 17 -145 31 -226 31 -180 31 -181 50 -267 9 -38 18 -83 21 -100 11 -61 57
-205 67 -205 5 0 63 32 128 70 65 39 120 70 123 70 2 0 27 15 55 33 27 17 80
50 116 72 l66 40 -5 60 c-2 33 -7 71 -10 85 -4 14 -9 39 -12 55 -3 17 -14 75
-24 130 -16 88 -41 237 -56 332 -6 43 -28 63 -67 62 -18 0 -126 -27 -242 -60z"/>
<path d="M8425 6078 c-185 -143 -365 -286 -383 -303 -11 -10 -9 -28 12 -101
48 -170 148 -459 202 -591 l26 -61 112 81 c61 45 118 87 126 94 8 7 65 51 125
98 61 48 114 90 119 95 8 8 -37 152 -146 470 -27 80 -53 154 -58 165 -5 11
-14 38 -20 60 -5 22 -13 45 -17 51 -5 7 -39 -13 -98 -58z"/>
<path d="M7454 5328 c-38 -29 -71 -55 -74 -58 -3 -3 -34 -27 -70 -55 -75 -58
-81 -62 -178 -145 -40 -34 -77 -70 -82 -80 -14 -26 32 -181 146 -496 20 -54
40 -110 44 -124 14 -44 39 -98 48 -104 11 -7 62 28 197 132 6 4 28 21 50 37
57 43 207 167 227 188 18 20 17 22 -69 272 -19 55 -36 107 -38 115 -2 8 -22
67 -45 130 -23 63 -50 142 -61 175 -12 33 -22 61 -23 63 -2 1 -34 -21 -72 -50z"/>
<path d="M2223 5135 l-232 -226 26 -62 c62 -145 338 -667 353 -667 3 1 39 51
80 113 41 62 77 114 80 117 3 3 23 32 45 65 22 33 42 62 45 65 9 8 116 172
129 198 17 32 11 50 -54 167 -30 55 -91 172 -134 260 -44 88 -86 168 -93 178
-12 16 -34 -3 -245 -208z"/>
<path d="M6490 4572 c-54 -35 -196 -137 -208 -149 -8 -7 -30 -26 -50 -41 -21
-15 -42 -31 -48 -37 -26 -23 -105 -89 -121 -100 -15 -11 -15 -19 -4 -71 16
-77 223 -694 232 -694 4 0 14 6 21 13 7 7 29 24 48 37 36 25 408 307 424 321
5 5 -2 39 -17 81 -14 40 -58 165 -97 278 -73 209 -141 380 -150 379 -3 0 -16
-7 -30 -17z"/>
<path d="M3098 4155 c-74 -153 -196 -420 -233 -508 l-28 -68 44 -42 c42 -40
158 -143 207 -183 13 -10 33 -27 45 -38 12 -10 38 -30 57 -45 19 -14 37 -28
40 -32 19 -22 133 -89 140 -83 7 8 63 176 75 224 2 8 24 85 50 170 25 85 47
162 49 170 2 8 15 54 29 103 l25 87 -92 69 c-50 38 -100 78 -111 88 -11 10
-33 28 -49 41 -25 19 -151 130 -180 157 -8 8 -28 -24 -68 -110z"/>
<path d="M5440 3815 c-83 -44 -200 -95 -293 -129 -48 -18 -81 -42 -73 -54 2
-4 7 -32 10 -62 4 -30 9 -71 11 -90 3 -19 7 -53 9 -75 22 -184 26 -218 30
-240 2 -12 7 -48 11 -80 4 -33 9 -67 11 -77 1 -9 5 -38 9 -65 12 -83 14 -95
20 -101 5 -5 165 44 195 60 20 11 74 31 80 31 3 0 73 34 155 76 123 62 150 80
148 96 -2 11 -19 79 -38 150 -20 72 -38 139 -40 149 -9 40 -115 404 -124 429
-6 15 -16 27 -23 27 -7 0 -51 -21 -98 -45z"/>
<path d="M4064 3623 c-3 -27 -8 -57 -10 -67 -3 -19 -21 -146 -29 -207 -2 -17
-6 -42 -9 -57 -3 -15 -8 -49 -11 -77 -3 -27 -7 -61 -10 -75 -7 -40 -14 -91
-20 -155 -3 -33 -8 -72 -11 -88 -7 -44 45 -66 236 -102 14 -3 48 -9 75 -14 66
-13 114 -19 210 -27 l80 -6 4 178 c7 252 7 662 0 668 -6 6 -31 10 -179 27 -58
6 -145 20 -194 30 -126 27 -124 27 -132 -28z"/>
</g>
</svg>
